<?xml version="1.0" standalone="no"?>
<svg xmlns:xlink="http://www.w3.org/1999/xlink" id="wave" style="transform:rotate(0deg); transition: 0.3s" viewBox="0 0 1440 230" version="1.1" xmlns="http://www.w3.org/2000/svg"><defs><linearGradient id="sw-gradient-0" x1="0" x2="0" y1="1" y2="0"><stop stop-color="rgba(51, 51, 51, 1)" offset="0%"/><stop stop-color="rgba(82.284, 82.284, 82.284, 1)" offset="100%"/></linearGradient></defs><path style="transform:translate(0, 0px); opacity:1" fill="url(#sw-gradient-0)" d="M0,207L48,195.5C96,184,192,161,288,149.5C384,138,480,138,576,122.7C672,107,768,77,864,53.7C960,31,1056,15,1152,42.2C1248,69,1344,138,1440,149.5C1536,161,1632,115,1728,99.7C1824,84,1920,100,2016,122.7C2112,146,2208,176,2304,187.8C2400,199,2496,192,2592,157.2C2688,123,2784,61,2880,42.2C2976,23,3072,46,3168,61.3C3264,77,3360,84,3456,76.7C3552,69,3648,46,3744,57.5C3840,69,3936,115,4032,145.7C4128,176,4224,192,4320,191.7C4416,192,4512,176,4608,145.7C4704,115,4800,69,4896,42.2C4992,15,5088,8,5184,19.2C5280,31,5376,61,5472,84.3C5568,107,5664,123,5760,126.5C5856,130,5952,123,6048,126.5C6144,130,6240,146,6336,134.2C6432,123,6528,84,6624,92C6720,100,6816,153,6864,180.2L6912,207L6912,230L6864,230C6816,230,6720,230,6624,230C6528,230,6432,230,6336,230C6240,230,6144,230,6048,230C5952,230,5856,230,5760,230C5664,230,5568,230,5472,230C5376,230,5280,230,5184,230C5088,230,4992,230,4896,230C4800,230,4704,230,4608,230C4512,230,4416,230,4320,230C4224,230,4128,230,4032,230C3936,230,3840,230,3744,230C3648,230,3552,230,3456,230C3360,230,3264,230,3168,230C3072,230,2976,230,2880,230C2784,230,2688,230,2592,230C2496,230,2400,230,2304,230C2208,230,2112,230,2016,230C1920,230,1824,230,1728,230C1632,230,1536,230,1440,230C1344,230,1248,230,1152,230C1056,230,960,230,864,230C768,230,672,230,576,230C480,230,384,230,288,230C192,230,96,230,48,230L0,230Z"/></svg>